<?xml version="1.0" encoding="utf-8"?>
<svg xmlns="http://www.w3.org/2000/svg" viewBox="0 0 100 100" width="500" height="500">
  <path fill="#c7ede6" d="M87.215,56.71C88.35,54.555,89,52.105,89,49.5c0-6.621-4.159-12.257-10.001-14.478C78.999,35.015,79,35.008,79,35c0-11.598-9.402-21-21-21c-9.784,0-17.981,6.701-20.313,15.757C36.211,29.272,34.638,29,33,29c-7.692,0-14.023,5.793-14.89,13.252C12.906,43.353,9,47.969,9,53.5C9,59.851,14.149,65,20.5,65c0.177,0,0.352-0.012,0.526-0.022C21.022,65.153,21,65.324,21,65.5C21,76.822,30.178,86,41.5,86c6.437,0,12.175-2.972,15.934-7.614C59.612,80.611,62.64,82,66,82c4.65,0,8.674-2.65,10.666-6.518C77.718,75.817,78.837,76,80,76c6.075,0,11-4.925,11-11C91,61.689,89.53,58.727,87.215,56.71z" />
  <path fill="#fdfcef" d="M65.5,37.5V38h-3v-0.5c0,0-4.242,0-5.5,0c-2.485,0-4.5-2.015-4.5-4.5 c0-2.333,1.782-4.229,4.055-4.455C56.533,28.364,56.5,28.187,56.5,28c0-2.485,2.015-4.5,4.5-4.5c1.438,0,2.703,0.686,3.527,1.736 C64.667,22.6,66.829,20.5,69.5,20.5c2.761,0,5,2.239,5,5c0,0.446-0.077,0.87-0.187,1.282c0.642-0.777,1.6-1.282,2.687-1.282 c1.781,0,3.234,1.335,3.455,3.055C80.636,28.533,80.813,28.5,81,28.5c2.485,0,4.5,2.015,4.5,4.5s-2.015,4.5-4.5,4.5s-9.5,0-9.5,0 H65.5z" />
  <path fill="#472b29" d="M69.5,20c3.033,0,5.5,2.467,5.5,5.5c0,0.016,0,0.031,0,0.047C75.602,25.192,76.29,25,77,25 c1.831,0,3.411,1.261,3.858,3.005C80.905,28.002,80.952,28,81,28c2.757,0,5,2.243,5,5s-2.243,5-5,5H65.5 c-0.276,0-0.5-0.224-0.5-0.5s0.224-0.5,0.5-0.5H81c2.206,0,4-1.794,4-4s-1.794-4-4-4c-0.117,0-0.23,0.017-0.343,0.032l-0.141,0.019 c-0.021,0.003-0.041,0.004-0.062,0.004c-0.246,0-0.462-0.185-0.495-0.437C79.768,27.125,78.496,26,77,26 c-0.885,0-1.723,0.401-2.301,1.1c-0.098,0.118-0.241,0.182-0.386,0.182c-0.078,0-0.156-0.018-0.228-0.056 c-0.209-0.107-0.314-0.346-0.254-0.573C73.946,26.218,74,25.852,74,25.5c0-2.481-2.019-4.5-4.5-4.5 c-2.381,0-4.347,1.872-4.474,4.263c-0.011,0.208-0.15,0.387-0.349,0.45c-0.05,0.016-0.101,0.024-0.152,0.024 c-0.15,0-0.296-0.069-0.392-0.192C63.362,24.563,62.221,24,61,24c-2.206,0-4,1.794-4,4c0,0.117,0.017,0.23,0.032,0.343l0.019,0.141 c0.016,0.134-0.022,0.268-0.106,0.373s-0.207,0.172-0.34,0.185C54.549,29.247,53,30.949,53,33c0,2.206,1.794,4,4,4h5.5 c0.276,0,0.5,0.224,0.5,0.5S62.776,38,62.5,38H57c-2.757,0-5-2.243-5-5c0-2.397,1.689-4.413,4.003-4.877 C56.001,28.082,56,28.041,56,28c0-2.757,2.243-5,5-5c1.176,0,2.293,0.416,3.183,1.164C64.781,21.76,66.945,20,69.5,20L69.5,20z" />
  <path fill="#fff" d="M19.5,43h-10C9.224,43,9,42.776,9,42.5S9.224,42,9.5,42h10c0.276,0,0.5,0.224,0.5,0.5S19.777,43,19.5,43z" />
  <path fill="#fff" d="M27.491,45H18.5c-0.276,0-0.5-0.224-0.5-0.5s0.224-0.5,0.5-0.5h8.991c0.276,0,0.5,0.224,0.5,0.5S27.767,45,27.491,45z" />
  <path fill="#fff" d="M16.5,45h-1c-0.276,0-0.5-0.224-0.5-0.5s0.224-0.5,0.5-0.5h1c0.276,0,0.5,0.224,0.5,0.5S16.777,45,16.5,45z" />
  <path fill="#fff" d="M22.5,40c-0.177,0-4.823,0-5,0c-0.276,0-0.5,0.224-0.5,0.5s0.224,0.5,0.5,0.5c0.177,0,4.823,0,5,0c0.276,0,0.5-0.224,0.5-0.5S22.776,40,22.5,40z" />
  <path fill="#fff" d="M64,28H36c-4.42,0-8,3.58-8,8v28c0,1.4,0.36,2.72,1,3.86c0.7,1.28,1.74,2.34,3,3.06 c0.32,0.19,0.65,0.36,1,0.5c0.93,0.37,1.94,0.58,3,0.58h28c0.34,0,0.67-0.02,1-0.06c1.08-0.14,2.1-0.49,3-1.02 c0.35-0.19,0.69-0.42,1-0.68c1.83-1.46,3-3.71,3-6.24V36C72,31.58,68.42,28,64,28z" />
  <path fill="#fff" d="M22.5,43h-1c-0.276,0-0.5-0.224-0.5-0.5s0.224-0.5,0.5-0.5h1c0.276,0,0.5,0.224,0.5,0.5S22.777,43,22.5,43z" />
  <path fill="#fff" d="M19.5,47h-2c-0.276,0-0.5-0.224-0.5-0.5s0.224-0.5,0.5-0.5h2c0.276,0,0.5,0.224,0.5,0.5S19.776,47,19.5,47z" />
  <path fill="#fff" d="M22.5,38c-0.177,0-0.823,0-1,0c-0.276,0-0.5,0.224-0.5,0.5s0.224,0.5,0.5,0.5c0.177,0,0.823,0,1,0c0.276,0,0.5-0.224,0.5-0.5S22.776,38,22.5,38z" />
  <path fill="#fff" d="M27.5,42c-0.177,0-2.823,0-3,0c-0.276,0-0.5,0.224-0.5,0.5s0.224,0.5,0.5,0.5c0.177,0,2.823,0,3,0c0.276,0,0.5-0.224,0.5-0.5S27.776,42,27.5,42z" />
  <path fill="#472b29" d="M64,29c3.86,0,7,3.14,7,7v28c0,2.139-0.956,4.128-2.643,5.474 c-0.256,0.215-0.537,0.406-0.865,0.584c-0.795,0.468-1.677,0.768-2.613,0.889C64.587,70.983,64.299,71,64,71H36 c-0.896,0-1.781-0.171-2.629-0.508c-0.277-0.111-0.559-0.252-0.875-0.44c-1.102-0.629-2.007-1.553-2.624-2.681 C29.302,66.354,29,65.189,29,64V36c0-3.86,3.14-7,7-7H64 M64,28H36c-4.42,0-8,3.58-8,8v28c0,1.4,0.36,2.72,1,3.86 c0.7,1.28,1.74,2.34,3,3.06c0.32,0.19,0.65,0.36,1,0.5c0.93,0.37,1.94,0.58,3,0.58h28c0.34,0,0.67-0.02,1-0.06 c1.08-0.14,2.1-0.49,3-1.02c0.35-0.19,0.69-0.42,1-0.68c1.83-1.46,3-3.71,3-6.24V36C72,31.58,68.42,28,64,28L64,28z" />
  <path fill="#472b29" d="M64,29.4c3.639,0,6.6,2.961,6.6,6.6v28c0,3.639-2.961,6.6-6.6,6.6H36c-3.639,0-6.6-2.961-6.6-6.6 V36c0-3.639,2.961-6.6,6.6-6.6H64 M64,28H36c-4.418,0-8,3.582-8,8v28c0,4.418,3.582,8,8,8h28c4.418,0,8-3.582,8-8V36 C72,31.582,68.418,28,64,28L64,28z" />
  <path fill="#472b29" d="M62.629,69.286H36.837c-3.298,0-5.981-2.683-5.981-5.981V37.513c0-3.298,2.683-5.981,5.981-5.981 h24.561c0.193,0,0.35,0.157,0.35,0.35s-0.157,0.35-0.35,0.35H36.837c-2.912,0-5.281,2.369-5.281,5.281v25.792 c0,2.912,2.369,5.281,5.281,5.281h25.792c2.912,0,5.28-2.369,5.28-5.281V49.036c0-0.193,0.157-0.35,0.35-0.35 s0.35,0.157,0.35,0.35v14.268C68.61,66.602,65.927,69.286,62.629,69.286z M68.26,47.328c-0.193,0-0.35-0.157-0.35-0.35v-2.745 c0-0.193,0.157-0.35,0.35-0.35s0.35,0.157,0.35,0.35v2.745C68.61,47.171,68.453,47.328,68.26,47.328z M68.26,43.211 c-0.193,0-0.35-0.157-0.35-0.35v-1.373c0-0.193,0.157-0.35,0.35-0.35s0.35,0.157,0.35,0.35v1.373 C68.61,43.054,68.453,43.211,68.26,43.211z" />
  <path fill="#f37e98" d="M55.638,43.124c-0.027,0.074-0.346,0.98-0.668,2.488c-1.373-1.692-3.377-2.766-5.612-2.766c-4.128,0-7.488,3.647-7.488,8.129s3.359,8.129,7.488,8.129c2.271,0,4.305-1.107,5.679-2.847c0.291,0.62,0.664,1.153,1.121,1.593c1.262,1.213,2.682,1.263,2.982,1.254c3.544-0.008,5.834-3.197,5.834-8.129C64.975,42.718,58.257,36,50,36s-14.975,6.718-14.975,14.975S41.743,65.951,50,65.951c3.065,0,7.028-0.356,10.5-3.134l-1.604-2.005C56.674,62.59,53.93,63.383,50,63.383c-6.842,0-12.408-5.566-12.408-12.408S43.158,38.567,50,38.567c6.842,0,12.408,5.566,12.408,12.408c0,0.929-0.158,5.562-3.303,5.563c-0.231-0.002-2.259-0.139-2.259-4.279c0-4.822,1.196-8.233,1.207-8.265L55.638,43.124z M49.358,56.538c-2.713,0-4.92-2.495-4.92-5.562c0-3.067,2.207-5.562,4.92-5.562c2.713,0,4.92,2.495,4.92,5.562C54.279,54.042,52.071,56.538,49.358,56.538z" />
  <path fill="none" stroke="#472b29" stroke-width=".75" d="M55.638,43.124c-0.027,0.074-0.346,0.98-0.668,2.488c-1.373-1.692-3.377-2.766-5.612-2.766c-4.128,0-7.488,3.647-7.488,8.129s3.359,8.129,7.488,8.129c2.271,0,4.305-1.107,5.679-2.847c0.291,0.62,0.664,1.153,1.121,1.593c1.262,1.213,2.682,1.263,2.982,1.254c3.544-0.008,5.834-3.197,5.834-8.129C64.975,42.718,58.257,36,50,36s-14.975,6.718-14.975,14.975S41.743,65.951,50,65.951c3.065,0,7.028-0.356,10.5-3.134l-1.604-2.005C56.674,62.59,53.93,63.383,50,63.383c-6.842,0-12.408-5.566-12.408-12.408S43.158,38.567,50,38.567c6.842,0,12.408,5.566,12.408,12.408c0,0.929-0.158,5.562-3.303,5.563c-0.231-0.002-2.259-0.139-2.259-4.279c0-4.822,1.196-8.233,1.207-8.265L55.638,43.124z M49.358,56.538c-2.713,0-4.92-2.495-4.92-5.562c0-3.067,2.207-5.562,4.92-5.562c2.713,0,4.92,2.495,4.92,5.562C54.279,54.042,52.071,56.538,49.358,56.538z" />
  <g>
    <path fill="#fdfcef" d="M36.5,74.5c0,0,1.567,0,3.5,0s3.5-1.567,3.5-3.5c0-1.781-1.335-3.234-3.055-3.455 C40.473,67.366,40.5,67.187,40.5,67c0-1.933-1.567-3.5-3.5-3.5c-1.032,0-1.95,0.455-2.59,1.165 c-0.384-1.808-1.987-3.165-3.91-3.165c-2.209,0-4,1.791-4,4c0,0.191,0.03,0.374,0.056,0.558C26.128,65.714,25.592,65.5,25,65.5 c-1.228,0-2.245,0.887-2.455,2.055C22.366,67.527,22.187,67.5,22,67.5c-1.933,0-3.5,1.567-3.5,3.5s1.567,3.5,3.5,3.5s7.5,0,7.5,0 V75h7V74.5z" />
    <path fill="#472b29" d="M38.25,70C38.112,70,38,69.888,38,69.75c0-1.223,0.995-2.218,2.218-2.218 c0.034,0.009,0.737-0.001,1.244,0.136c0.133,0.036,0.212,0.173,0.176,0.306c-0.036,0.134-0.173,0.213-0.306,0.176 c-0.444-0.12-1.1-0.12-1.113-0.118c-0.948,0-1.719,0.771-1.719,1.718C38.5,69.888,38.388,70,38.25,70z" />
    <circle cx="31.5" cy="74.5" r=".5" fill="#472b29" />
    <path fill="#472b29" d="M40,75h-3.5c-0.276,0-0.5-0.224-0.5-0.5s0.224-0.5,0.5-0.5H40c1.654,0,3-1.346,3-3 c0-1.496-1.125-2.768-2.618-2.959c-0.134-0.018-0.255-0.088-0.336-0.196s-0.115-0.244-0.094-0.377C39.975,67.314,40,67.16,40,67 c0-1.654-1.346-3-3-3c-0.85,0-1.638,0.355-2.219,1c-0.125,0.139-0.321,0.198-0.5,0.148c-0.182-0.049-0.321-0.195-0.36-0.379 C33.58,63.165,32.141,62,30.5,62c-1.93,0-3.5,1.57-3.5,3.5c0,0.143,0.021,0.28,0.041,0.418c0.029,0.203-0.063,0.438-0.242,0.54 s-0.396,0.118-0.556-0.01C25.878,66.155,25.449,66,25,66c-0.966,0-1.792,0.691-1.963,1.644c-0.048,0.267-0.296,0.446-0.569,0.405 C22.314,68.025,22.16,68,22,68c-1.654,0-3,1.346-3,3s1.346,3,3,3h7.5c0.276,0,0.5,0.224,0.5,0.5S29.776,75,29.5,75H22 c-2.206,0-4-1.794-4-4s1.794-4,4-4c0.059,0,0.116,0.002,0.174,0.006C22.588,65.82,23.711,65,25,65c0.349,0,0.689,0.061,1.011,0.18 C26.176,62.847,28.126,61,30.5,61c1.831,0,3.466,1.127,4.153,2.774C35.333,63.276,36.155,63,37,63c2.206,0,4,1.794,4,4 c0,0.048-0.001,0.095-0.004,0.142C42.739,67.59,44,69.169,44,71C44,73.206,42.206,75,40,75z" />
    <path fill="#472b29" d="M34.5,74c-0.159,0-0.841,0-1,0c-0.276,0-0.5,0.224-0.5,0.5s0.224,0.5,0.5,0.5c0.159,0,0.841,0,1,0 c0.276,0,0.5-0.224,0.5-0.5S34.776,74,34.5,74z" />
  </g>
  <g>
    <path fill="#fff" d="M84.5,67h-10c-0.276,0-0.5-0.224-0.5-0.5s0.224-0.5,0.5-0.5h10c0.276,0,0.5,0.224,0.5,0.5 S84.777,67,84.5,67z" />
    <path fill="#fff" d="M87.5,67h-1c-0.276,0-0.5-0.224-0.5-0.5s0.224-0.5,0.5-0.5h1c0.276,0,0.5,0.224,0.5,0.5 S87.777,67,87.5,67z" />
    <path fill="#fff" d="M92.491,69H83.5c-0.276,0-0.5-0.224-0.5-0.5s0.224-0.5,0.5-0.5h8.991c0.276,0,0.5,0.224,0.5,0.5 S92.767,69,92.491,69z" />
    <path fill="#fff" d="M81.5,69h-1c-0.276,0-0.5-0.224-0.5-0.5s0.224-0.5,0.5-0.5h1c0.276,0,0.5,0.224,0.5,0.5 S81.777,69,81.5,69z" />
    <path fill="#fff" d="M78.5,69h-2c-0.276,0-0.5-0.224-0.5-0.5s0.224-0.5,0.5-0.5h2c0.276,0,0.5,0.224,0.5,0.5 S78.777,69,78.5,69z" />
    <path fill="#fff" d="M84.5,71h-2c-0.276,0-0.5-0.224-0.5-0.5s0.224-0.5,0.5-0.5h2c0.276,0,0.5,0.224,0.5,0.5 S84.776,71,84.5,71z" />
    <path fill="#fff" d="M87.5,62c-0.177,0-0.823,0-1,0c-0.276,0-0.5,0.224-0.5,0.5c0,0.276,0.224,0.5,0.5,0.5 c0.177,0,0.823,0,1,0c0.276,0,0.5-0.224,0.5-0.5C88,62.224,87.776,62,87.5,62z" />
    <path fill="#fff" d="M87.5,64c-0.177,0-4.823,0-5,0c-0.276,0-0.5,0.224-0.5,0.5c0,0.276,0.224,0.5,0.5,0.5 c0.177,0,4.823,0,5,0c0.276,0,0.5-0.224,0.5-0.5C88,64.224,87.776,64,87.5,64z" />
    <path fill="#fff" d="M92.5,66c-0.177,0-2.823,0-3,0c-0.276,0-0.5,0.224-0.5,0.5c0,0.276,0.224,0.5,0.5,0.5 c0.177,0,2.823,0,3,0c0.276,0,0.5-0.224,0.5-0.5C93,66.224,92.776,66,92.5,66z" />
  </g>
</svg>