<?xml version="1.0" encoding="utf-8"?>
<svg xmlns="http://www.w3.org/2000/svg" width="500" height="500" viewBox="0 0 50 50">
  <path d="M8 9C7.7676875 9 7.5334021 9.0050403 7.3125 9.03125C7.0904375 9.0587134 6.8667961 9.1039325 6.65625 9.15625C6.4572906 9.2051765 6.2503084 9.2749961 6.0625 9.34375C5.864162 9.4183123 5.6541882 9.4995522 5.46875 9.59375C5.2935931 9.6820467 5.132003 9.7708658 4.96875 9.875C4.9567553 9.8826437 4.9494277 9.8985301 4.9375 9.90625C4.7792283 10.008818 4.6153476 10.134299 4.46875 10.25C4.457649 10.25873 4.4485295 10.272455 4.4375 10.28125C4.2928903 10.39714 4.1639927 10.498034 4.03125 10.625C4.0202567 10.635449 4.0109039 10.645739 4 10.65625C3.8674691 10.784698 3.7139275 10.924738 3.59375 11.0625C3.5888582 11.068113 3.5986183 11.088125 3.59375 11.09375C3.0841654 11.682426 2.6754102 12.327447 2.40625 13C2.2704925 13.332416 2.1638376 13.663537 2.09375 14C2.0917636 14.009316 2.0956841 14.021944 2.09375 14.03125C2.0618438 14.18911 2.0479527 14.342992 2.03125 14.5C2.0113993 14.673603 2 14.833803 2 15L2 16L2 21L2 35.375C2 35.568133 2.0119296 35.749188 2.03125 35.9375C2.0504348 36.13622 2.0855564 36.307814 2.125 36.5C2.1626741 36.682524 2.1949387 36.85548 2.25 37.03125C2.3606498 37.392806 2.5097722 37.735806 2.6875 38.0625C2.7744358 38.221861 2.8673269 38.350294 2.96875 38.5C2.9736692 38.507349 2.9637971 38.523926 2.96875 38.53125C3.0660061 38.673418 3.1717427 38.804993 3.28125 38.9375C3.5145164 39.222627 3.7471995 39.484218 4.03125 39.71875C4.0370075 39.723546 4.0567233 39.713976 4.0625 39.71875C4.1951831 39.8273 4.3264028 39.93499 4.46875 40.03125C4.475808 40.036078 4.4929193 40.026453 4.5 40.03125C4.9423894 40.327387 5.4189286 40.588313 5.9375 40.75C5.9466742 40.752926 5.9595559 40.74712 5.96875 40.75C6.3116586 40.854943 6.66418 40.931341 7.03125 40.96875C7.0414134 40.969849 7.052321 40.967706 7.0625 40.96875C7.2414002 40.986021 7.4416561 41 7.625 41L42.375 41C44.105177 41 45.684186 40.210603 46.71875 38.96875C46.724168 38.962188 46.713361 38.944087 46.71875 38.9375C46.828257 38.804993 46.933994 38.673418 47.03125 38.53125C47.036203 38.523926 47.026331 38.507349 47.03125 38.5C47.132673 38.350294 47.225564 38.221861 47.3125 38.0625C47.490228 37.735806 47.63935 37.392806 47.75 37.03125C47.805061 36.85548 47.837326 36.682524 47.875 36.5C47.914444 36.307814 47.949565 36.13622 47.96875 35.9375C47.98807 35.749188 48 35.568133 48 35.375L48 21L48 16L48 14.84375C48 14.642228 47.992829 14.448442 47.96875 14.25C47.948279 14.06592 47.913752 13.897736 47.875 13.71875C47.872826 13.709235 47.877227 13.697003 47.875 13.6875C47.835131 13.508363 47.775875 13.329333 47.71875 13.15625C47.715532 13.146845 47.722019 13.134389 47.71875 13.125C47.476513 12.404013 47.05652 11.762332 46.5625 11.1875C46.557287 11.181427 46.567737 11.162305 46.5625 11.15625C45.935756 10.432583 45.168962 9.8421837 44.28125 9.46875C44.272373 9.4650157 44.258895 9.4724428 44.25 9.46875C43.540266 9.1596719 42.78525 9 42 9L8 9 z M 4 16L46 16L46 21L4 21L4 16 z" fill="#0AEAF6" />
</svg>