<?xml version="1.0" encoding="utf-8"?>
<svg xmlns="http://www.w3.org/2000/svg" viewBox="0 0 80 80" width="480" height="480">
  <path d="M17 8C13.145666 8 10 11.145666 10 15L10 20L18 20L18 69L34.585938 69L30.585938 73L37 73L37 79.414062L46.677734 69.736328L46.880859 69.988281C47.956372 71.320982 50.041675 71.320982 51.117188 69.988281L51.320312 69.734375L61 79.414062L61 73L67.414062 73L63.414062 69L68 69L68 15C68 11.145666 64.854334 8 61 8L17 8 z M 17 10L56.115234 10C54.813073 11.27253 54 13.043644 54 15L54 18L12 18L12 15C12 12.226334 14.226334 10 17 10 z M 61 10C63.773666 10 66 12.226334 66 15L66 67L61.414062 67L58.693359 64.279297L59.25 64.066406C60.849193 63.452654 61.491316 61.471673 60.558594 60.035156L59.560547 58.5L60.558594 56.964844C61.491316 55.528327 60.849193 53.547346 59.25 52.933594L57.544922 52.279297L57.451172 50.451172C57.363892 48.739942 55.677412 47.512302 54.023438 47.958984L52.263672 48.433594L51.117188 47.011719C50.579431 46.345368 49.788268 46.011719 48.998047 46.011719C48.207826 46.011719 47.418616 46.345368 46.880859 47.011719L45.734375 48.433594L43.972656 47.958984C42.318821 47.513901 40.634207 48.740409 40.546875 50.451172L40.453125 52.279297L38.748047 52.933594C37.148854 53.547346 36.506731 55.528327 37.439453 56.964844L38.4375 58.5L37.439453 60.035156C36.506731 61.471673 37.148854 63.452654 38.748047 64.066406L39.304688 64.28125L36.585938 67L20 67L20 20L56 20L56 15C56 12.226334 58.226334 10 61 10 z M 27 26 A 1 1 0 0 0 26 27 A 1 1 0 0 0 27 28 A 1 1 0 0 0 28 27 A 1 1 0 0 0 27 26 z M 31 26 A 1 1 0 0 0 30 27 A 1 1 0 0 0 31 28 A 1 1 0 0 0 32 27 A 1 1 0 0 0 31 26 z M 35 26 A 1 1 0 0 0 34 27 A 1 1 0 0 0 35 28 A 1 1 0 0 0 36 27 A 1 1 0 0 0 35 26 z M 39 26 A 1 1 0 0 0 38 27 A 1 1 0 0 0 39 28 A 1 1 0 0 0 40 27 A 1 1 0 0 0 39 26 z M 43 26 A 1 1 0 0 0 42 27 A 1 1 0 0 0 43 28 A 1 1 0 0 0 44 27 A 1 1 0 0 0 43 26 z M 47 26 A 1 1 0 0 0 46 27 A 1 1 0 0 0 47 28 A 1 1 0 0 0 48 27 A 1 1 0 0 0 47 26 z M 51 26 A 1 1 0 0 0 50 27 A 1 1 0 0 0 51 28 A 1 1 0 0 0 52 27 A 1 1 0 0 0 51 26 z M 55 26 A 1 1 0 0 0 54 27 A 1 1 0 0 0 55 28 A 1 1 0 0 0 56 27 A 1 1 0 0 0 55 26 z M 59 26 A 1 1 0 0 0 58 27 A 1 1 0 0 0 59 28 A 1 1 0 0 0 60 27 A 1 1 0 0 0 59 26 z M 27 31 A 1 1 0 0 0 26 32 A 1 1 0 0 0 27 33 A 1 1 0 0 0 28 32 A 1 1 0 0 0 27 31 z M 31 31 A 1 1 0 0 0 30 32 A 1 1 0 0 0 31 33 A 1 1 0 0 0 32 32 A 1 1 0 0 0 31 31 z M 35 31 A 1 1 0 0 0 34 32 A 1 1 0 0 0 35 33 A 1 1 0 0 0 36 32 A 1 1 0 0 0 35 31 z M 39 31 A 1 1 0 0 0 38 32 A 1 1 0 0 0 39 33 A 1 1 0 0 0 40 32 A 1 1 0 0 0 39 31 z M 43 31 A 1 1 0 0 0 42 32 A 1 1 0 0 0 43 33 A 1 1 0 0 0 44 32 A 1 1 0 0 0 43 31 z M 47 31 A 1 1 0 0 0 46 32 A 1 1 0 0 0 47 33 A 1 1 0 0 0 48 32 A 1 1 0 0 0 47 31 z M 51 31 A 1 1 0 0 0 50 32 A 1 1 0 0 0 51 33 A 1 1 0 0 0 52 32 A 1 1 0 0 0 51 31 z M 55 31 A 1 1 0 0 0 54 32 A 1 1 0 0 0 55 33 A 1 1 0 0 0 56 32 A 1 1 0 0 0 55 31 z M 59 31 A 1 1 0 0 0 58 32 A 1 1 0 0 0 59 33 A 1 1 0 0 0 60 32 A 1 1 0 0 0 59 31 z M 27 36 A 1 1 0 0 0 26 37 A 1 1 0 0 0 27 38 A 1 1 0 0 0 28 37 A 1 1 0 0 0 27 36 z M 31 36 A 1 1 0 0 0 30 37 A 1 1 0 0 0 31 38 A 1 1 0 0 0 32 37 A 1 1 0 0 0 31 36 z M 35 36 A 1 1 0 0 0 34 37 A 1 1 0 0 0 35 38 A 1 1 0 0 0 36 37 A 1 1 0 0 0 35 36 z M 39 36 A 1 1 0 0 0 38 37 A 1 1 0 0 0 39 38 A 1 1 0 0 0 40 37 A 1 1 0 0 0 39 36 z M 43 36 A 1 1 0 0 0 42 37 A 1 1 0 0 0 43 38 A 1 1 0 0 0 44 37 A 1 1 0 0 0 43 36 z M 47 36 A 1 1 0 0 0 46 37 A 1 1 0 0 0 47 38 A 1 1 0 0 0 48 37 A 1 1 0 0 0 47 36 z M 51 36 A 1 1 0 0 0 50 37 A 1 1 0 0 0 51 38 A 1 1 0 0 0 52 37 A 1 1 0 0 0 51 36 z M 55 36 A 1 1 0 0 0 54 37 A 1 1 0 0 0 55 38 A 1 1 0 0 0 56 37 A 1 1 0 0 0 55 36 z M 59 36 A 1 1 0 0 0 58 37 A 1 1 0 0 0 59 38 A 1 1 0 0 0 60 37 A 1 1 0 0 0 59 36 z M 27 41 A 1 1 0 0 0 26 42 A 1 1 0 0 0 27 43 A 1 1 0 0 0 28 42 A 1 1 0 0 0 27 41 z M 31 41 A 1 1 0 0 0 30 42 A 1 1 0 0 0 31 43 A 1 1 0 0 0 32 42 A 1 1 0 0 0 31 41 z M 35 41 A 1 1 0 0 0 34 42 A 1 1 0 0 0 35 43 A 1 1 0 0 0 36 42 A 1 1 0 0 0 35 41 z M 39 41 A 1 1 0 0 0 38 42 A 1 1 0 0 0 39 43 A 1 1 0 0 0 40 42 A 1 1 0 0 0 39 41 z M 43 41 A 1 1 0 0 0 42 42 A 1 1 0 0 0 43 43 A 1 1 0 0 0 44 42 A 1 1 0 0 0 43 41 z M 47 41 A 1 1 0 0 0 46 42 A 1 1 0 0 0 47 43 A 1 1 0 0 0 48 42 A 1 1 0 0 0 47 41 z M 51 41 A 1 1 0 0 0 50 42 A 1 1 0 0 0 51 43 A 1 1 0 0 0 52 42 A 1 1 0 0 0 51 41 z M 55 41 A 1 1 0 0 0 54 42 A 1 1 0 0 0 55 43 A 1 1 0 0 0 56 42 A 1 1 0 0 0 55 41 z M 59 41 A 1 1 0 0 0 58 42 A 1 1 0 0 0 59 43 A 1 1 0 0 0 60 42 A 1 1 0 0 0 59 41 z M 27 46 A 1 1 0 0 0 26 47 A 1 1 0 0 0 27 48 A 1 1 0 0 0 28 47 A 1 1 0 0 0 27 46 z M 31 46 A 1 1 0 0 0 30 47 A 1 1 0 0 0 31 48 A 1 1 0 0 0 32 47 A 1 1 0 0 0 31 46 z M 35 46 A 1 1 0 0 0 34 47 A 1 1 0 0 0 35 48 A 1 1 0 0 0 36 47 A 1 1 0 0 0 35 46 z M 48.998047 47.984375C49.202826 47.984375 49.408303 48.078925 49.560547 48.267578L51.525391 50.705078L54.544922 49.890625C55.008947 49.765308 55.430354 50.069915 55.455078 50.554688L55.615234 53.679688L58.533203 54.800781C58.982011 54.973029 59.144137 55.47147 58.880859 55.876953L57.175781 58.5L58.880859 61.123047C59.144137 61.52853 58.982011 62.026971 58.533203 62.199219L55.615234 63.320312L55.455078 66.445312C55.430408 66.928551 55.009087 67.234292 54.544922 67.109375L51.525391 66.294922L49.560547 68.732422C49.25606 69.109721 48.741987 69.109721 48.4375 68.732422L46.472656 66.294922L43.453125 67.109375C42.9891 67.234692 42.567693 66.930083 42.542969 66.445312L42.382812 63.320312L39.464844 62.199219C39.016036 62.026971 38.85391 61.52853 39.117188 61.123047L40.822266 58.5L40.466797 57.955078L39.117188 55.876953C38.85391 55.47147 39.016036 54.973029 39.464844 54.800781L42.382812 53.679688L42.542969 50.554688C42.567639 50.071449 42.98896 49.765708 43.453125 49.890625L46.472656 50.705078L48.4375 48.267578C48.589744 48.078929 48.793268 47.984375 48.998047 47.984375 z M 27 51 A 1 1 0 0 0 26 52 A 1 1 0 0 0 27 53 A 1 1 0 0 0 28 52 A 1 1 0 0 0 27 51 z M 31 51 A 1 1 0 0 0 30 52 A 1 1 0 0 0 31 53 A 1 1 0 0 0 32 52 A 1 1 0 0 0 31 51 z M 57.484375 65.898438L62.585938 71L59 71L59 74.585938L53.244141 68.830078L54.025391 69.041016C55.679225 69.486099 57.36384 68.259591 57.451172 66.548828L57.484375 65.898438 z M 40.513672 65.900391L40.546875 66.548828C40.634115 68.259375 42.319316 69.486184 43.972656 69.041016L44.755859 68.830078L39 74.585938L39 71L35.414062 71L40.513672 65.900391 z" fill="#0AEAF6" />
</svg>